# xmcd
# 
# Track frame offsets:
#     222
#     18155
#     43052
# 
# Disc length: 1006
# 
# Revision: 0
# Processed by: cddbd v1.5.2PL0 Copyright (c) Steve Scherf et al.
# Submitted via: BonkEnc v1.0.8
# 
DISCID=1a03ec03
DTITLE=Rodeo Jones - Get Wise
DYEAR=1991
DGENRE=Dance
TTITLE0=Get Wise (Original 7")
TTITLE1=Get Wise (Bumpin' Mix)
TTITLE2=Get Wise (Late Night Mix)
EXTD=
EXTT0=
EXTT1=
EXTT2=
PLAYORDER=
